<svg width="32" height="32" viewBox="0 0 32 32" fill="none" xmlns="http://www.w3.org/2000/svg">
<path d="M8.33682 13.4163C8.29123 12.8659 8.70045 12.3828 9.25085 12.3372C9.81367 12.2901 10.1573 12.3274 10.5016 12.3647L10.5119 12.3659C11.1701 12.4373 12.1338 12.6327 12.8832 13.2278C13.4043 13.6417 13.7994 14.1466 14.0738 14.5627C14.4465 15.1279 14.3978 15.7948 14.0563 16.2837C13.7344 16.7445 13.1967 17.0002 12.6353 17.0002C11.5924 17.0002 10.5765 16.0292 10.9567 14.8231L11.0566 14.5062C10.8269 14.4338 10.567 14.3836 10.2963 14.3542C10.0431 14.3267 9.57926 14.3291 9.41552 14.3304C8.8653 14.3757 8.38241 13.9666 8.33682 13.4163Z" fill="#226993"/>
<path d="M23.6627 13.4377C23.7124 12.8876 23.3062 12.4014 22.7562 12.3518C22.2483 12.3059 21.8422 12.3365 21.4939 12.3723C20.8351 12.4399 19.8687 12.6308 19.117 13.2278C18.5958 13.6417 18.2007 14.1466 17.9263 14.5627C17.5536 15.1279 17.6023 15.7948 17.9439 16.2837C18.2658 16.7445 18.8035 17.0002 19.3649 17.0002C20.4078 17.0002 21.4237 16.0292 21.0435 14.8231L20.9442 14.5082C21.1718 14.4378 21.4294 14.3894 21.6982 14.3618C21.9508 14.3359 22.4142 14.3413 22.5777 14.3438C23.1274 14.3929 23.6131 13.9874 23.6627 13.4377Z" fill="#226993"/>
<path d="M12.6007 21.8672C12.1592 21.5355 11.5323 21.6245 11.2006 22.0661C10.8688 22.5076 10.9579 23.1345 11.3994 23.4662C12.6808 24.429 14.2752 24.9998 16.0001 24.9998C17.7249 24.9998 19.3193 24.429 20.6007 23.4662C21.0423 23.1345 21.1313 22.5076 20.7996 22.0661C20.4678 21.6245 19.841 21.5355 19.3994 21.8672C18.4525 22.5787 17.2769 22.9998 16.0001 22.9998C14.7233 22.9998 13.5477 22.5787 12.6007 21.8672Z" fill="#226993"/>
<path fill-rule="evenodd" clip-rule="evenodd" d="M30.0405 3.29292C30.3059 3.55828 30.4003 3.94988 30.2851 4.30704L28.0377 11.2738C27.9558 11.5277 27.9087 11.6751 27.8799 11.7879C27.8651 11.8462 27.8601 11.8771 27.8585 11.8903C27.8614 11.905 27.8705 11.945 27.896 12.0232C27.9408 12.1601 28.0105 12.3406 28.1232 12.631C28.6898 14.0906 29 15.6769 29 17.3334C29 24.5131 23.1798 30.3334 16 30.3334C8.82035 30.3334 3.00005 24.5131 3.00005 17.3334C3.00005 15.6769 3.31033 14.0906 3.87686 12.631C3.98958 12.3406 4.05926 12.1601 4.10405 12.0232C4.1296 11.945 4.13868 11.905 4.14162 11.8903C4.14002 11.8771 4.13504 11.8462 4.12016 11.7879C4.09139 11.6751 4.0443 11.5277 3.9624 11.2738L1.71501 4.30704C1.59979 3.94988 1.69424 3.55828 1.95961 3.29292C2.22497 3.02756 2.61657 2.93311 2.97372 3.04832L10.5953 5.50693C12.2423 4.75313 14.0734 4.33336 16 4.33336C17.9267 4.33336 19.7578 4.75313 21.4048 5.50693L29.0264 3.04832C29.3835 2.93311 29.7751 3.02756 30.0405 3.29292ZM23.7094 6.865C23.8664 6.98081 24.0207 7.10007 24.1722 7.22266C24.6015 7.57007 24.6679 8.19974 24.3205 8.62907C23.9731 9.0584 23.3434 9.12481 22.9141 8.77739C22.2911 8.27326 21.6122 7.83596 20.8884 7.47623C19.4169 6.745 17.758 6.33336 16 6.33336C14.2421 6.33336 12.5832 6.745 11.1117 7.47623C10.3879 7.83596 9.70899 8.27326 9.08598 8.77739C8.65665 9.12481 8.02698 9.0584 7.67957 8.62907C7.33215 8.19974 7.39856 7.57007 7.82789 7.22266C7.97938 7.10007 8.13369 6.98081 8.29072 6.865L4.21783 5.55114L5.86581 10.6598L5.89757 10.7577C6.0217 11.1391 6.15334 11.5436 6.14144 11.9522C6.13397 12.2092 6.07085 12.4434 6.00495 12.6449C5.94125 12.8397 5.85134 13.0713 5.75032 13.3315L5.74134 13.3547C5.26295 14.5872 5.00005 15.9284 5.00005 17.3334C5.00005 23.4085 9.92492 28.3334 16 28.3334C22.0752 28.3334 27 23.4085 27 17.3334C27 15.9284 26.7371 14.5872 26.2588 13.3547L26.2498 13.3316C26.1488 13.0713 26.0588 12.8397 25.9951 12.6449C25.9292 12.4434 25.8661 12.2092 25.8587 11.9522C25.8468 11.5436 25.9784 11.1391 26.1025 10.7577L26.1343 10.6598L27.7823 5.55114L23.7094 6.865Z" fill="#226993"/>
</svg>
